<svg xmlns="http://www.w3.org/2000/svg" width="794" height="1123" viewBox="0 0 794 1123"><defs><radialGradient id="bg" cx="50%" cy="35%" r="75%"><stop offset="0" stop-color="#12233b"/><stop offset=".55" stop-color="#07111f"/><stop offset="1" stop-color="#03060d"/></radialGradient><filter id="glow"><feGaussianBlur stdDeviation="8" result="b"/><feMerge><feMergeNode in="b"/><feMergeNode in="SourceGraphic"/></feMerge></filter></defs><rect width="794" height="1123" fill="url(#bg)"/><g opacity=".85" filter="url(#glow)" fill="none" stroke-width="3"><path d="M-30 110L190 -20M20 170L240 40M615 0L824 140M590 55L800 195M-10 905L190 1080M25 835L220 1000M610 930L810 780M640 1000L820 865" stroke="#17c8ff"/><path d="M40 70L250 -10M560 60L780 220M15 980L210 1120M570 1040L810 850" stroke="#ff27d4"/></g><g text-anchor="middle" font-family="Arial,sans-serif"><text x="397" y="90" font-size="18" font-weight="700" fill="#fff" letter-spacing="2">📸 LOCATION PHOTOBOOTH 28</text><text x="397" y="120" font-size="17" font-style="italic" fill="#e8eef8">Vos souvenirs prennent vie !</text><text x="397" y="235" font-size="72" font-weight="900" fill="#fff" filter="url(#glow)">INVITÉS</text><rect x="217" y="272" width="360" height="54" rx="27" fill="none" stroke="#ff27d4" stroke-width="4" filter="url(#glow)"/><text x="397" y="307" font-size="24" font-weight="800" fill="#fff">SCANNEZ LE QR CODE</text></g><rect x="210" y="430" width="374" height="374" rx="28" fill="#fff" stroke="#17c8ff" stroke-width="5" filter="url(#glow)"/><g text-anchor="middle" font-family="Arial,sans-serif"><text x="397" y="389" font-size="26" font-weight="800" fill="#fff">📷 Scannez-moi !</text><g transform="translate(120 865)"><circle r="30" fill="#d81bff"/><text y="8" font-size="27" fill="#fff">▣</text><text y="58" font-size="14" font-weight="700" fill="#fff">Consultez</text><text y="77" font-size="13" fill="#cbd5e1">les photos</text></g><g transform="translate(303 865)"><circle r="30" fill="#168cff"/><text y="8" font-size="27" fill="#fff">☝</text><text y="58" font-size="14" font-weight="700" fill="#fff">Sélectionnez</text><text y="77" font-size="13" fill="#cbd5e1">vos préférées</text></g><g transform="translate(491 865)"><circle r="30" fill="#04c98a"/><text y="8" font-size="27" fill="#fff">⬇</text><text y="58" font-size="14" font-weight="700" fill="#fff">Téléchargez</text><text y="77" font-size="13" fill="#cbd5e1">directement</text></g><g transform="translate(674 865)"><circle r="30" fill="#ffb000"/><text y="7" font-size="25" fill="#111">●</text><text y="58" font-size="14" font-weight="700" fill="#fff">Partagez</text><text y="77" font-size="13" fill="#cbd5e1">vos souvenirs</text></g><text x="397" y="1000" font-family="Georgia,serif" font-size="30" font-style="italic" fill="#fff" filter="url(#glow)">Bonnes photos ! ♡</text><text x="397" y="1050" font-size="13" fill="#cbd5e1">Suivez-nous sur</text><text x="397" y="1080" font-size="17" font-weight="700" fill="#fff">ⓕ Facebook  •  ◎ Instagram  —  Location Photobooth 28</text></g></svg>